PathFileType	4	(X/Y/Z)	1H_rest_slow_left.trc
DataRate	CameraRate	NumFrames	NumMarkers	Units	OrigDataRate	OrigDataStartFrame	OrigNumFrames
250.00	250.00	10	18	mm	250.00	5102	13604
Frame#	Time	c7	r_should	l_should	clavicle	r_upa	r_elb_l	r_elb_m	r_low	r_wri_l	r_wri_m	r_met	l_upa	l_elb_l	l_elb_m	l_low	l_wri_l	l_wri_m	l_met
	X1	Y1	Z1	X2	Y2	Z2	X3	Y3	Z3	X4	Y4	Z4	X5	Y5	Z5	X6	Y6	Z6	X7	Y7	Z7	X8	Y8	Z8	X9	Y9	Z9	X10	Y10	Z10	X11	Y11	Z11	X12	Y12	Z12	X13	Y13	Z13	X14	Y14	Z14	X15	Y15	Z15	X16	Y16	Z16	X17	Y17	Z17	X18	Y18	Z18
5102	20.40400	560.58441	1403.98596	313.02197	637.42847	1344.64087	459.30768	591.44702	1378.13806	144.10245	710.21381	1292.03723	279.79349	661.52252	1135.35901	515.86499	664.27734	1044.99023	531.75537	617.64703	1009.78839	460.13586	733.39679	875.61682	509.69714	765.22552	814.90814	479.52127	699.60400	786.50928	505.29086	803.25092	737.42035	515.70001	608.44897	1200.85791	55.53701	614.69141	1129.89612	30.55529	666.15643	1074.05200	103.34914	702.19086	1199.80884	25.25176	736.33331	1263.92651	50.13396	796.77094	1226.04370	43.41656	778.00037	1337.39844	20.34267
5103	20.40800	560.55072	1403.98608	313.02240	637.39417	1344.64282	459.30823	591.40448	1378.13342	144.10359	710.17334	1292.02502	279.79178	661.47906	1135.35242	515.85370	664.23090	1044.98315	531.73114	617.58350	1009.79150	460.12878	733.32050	875.60333	509.66251	765.14148	814.88708	479.49402	699.51733	786.50690	505.26379	803.15778	737.39508	515.68231	608.40576	1200.86523	55.52866	614.64929	1129.90002	30.54518	666.12018	1074.05017	103.33048	702.15820	1199.80603	25.22916	736.31268	1263.92432	50.11218	796.74530	1226.03223	43.39500	777.97687	1337.38428	20.30806
5104	20.41200	560.51807	1403.98596	313.01990	637.36536	1344.64282	459.30667	591.36688	1378.13379	144.10298	710.14050	1292.01440	279.79141	661.43982	1135.34937	515.83722	664.19183	1044.97412	531.70233	617.52332	1009.79413	460.11526	733.24988	875.59131	509.62900	765.05847	814.86829	479.46762	699.42523	786.50189	505.23828	803.06433	737.37469	515.66101	608.35968	1200.87451	55.51578	614.60712	1129.90308	30.52755	666.08966	1074.04663	103.30170	702.12366	1199.80115	25.20889	736.28436	1263.92322	50.08253	796.71838	1226.02869	43.36065	777.95642	1337.37170	20.27309
5105	20.41600	560.48480	1403.99243	313.01462	637.33521	1344.64221	459.30038	591.32825	1378.12952	144.10110	710.10352	1292.00647	279.79190	661.41071	1135.34473	515.82092	664.14954	1044.96460	531.67493	617.46167	1009.79376	460.09964	733.17743	875.57764	509.59503	764.97327	814.84998	479.44077	699.32471	786.49438	505.21399	802.96722	737.35425	515.63953	608.31561	1200.87952	55.51168	614.56256	1129.90845	30.51140	666.04138	1074.04663	103.28595	702.09027	1199.80237	25.19108	736.25818	1263.92480	50.04843	796.68951	1226.02905	43.31452	777.93365	1337.36487	20.23352
5106	20.42000	560.45312	1403.99597	313.00333	637.30359	1344.63904	459.30219	591.28876	1378.12427	144.10860	710.06476	1292.00159	279.79010	661.37573	1135.34094	515.80737	664.10553	1044.96155	531.65198	617.39435	1009.79291	460.09149	733.09833	875.56506	509.56525	764.88660	814.82898	479.41470	699.22247	786.48724	505.19562	802.86322	737.33496	515.62885	608.26910	1200.88220	55.51030	614.51935	1129.91101	30.49773	666.01331	1074.05469	103.27174	702.05750	1199.80579	25.16861	736.22906	1263.92505	50.00424	796.65948	1226.02954	43.26505	777.90894	1337.35657	20.19535
5107	20.42400	560.42456	1403.99805	312.99847	637.27765	1344.63818	459.30301	591.24591	1378.12524	144.11296	710.02832	1291.99646	279.79294	661.33630	1135.33838	515.79523	664.05682	1044.96082	531.63440	617.33124	1009.79474	460.08823	733.01709	875.55261	509.54419	764.79437	814.81116	479.39526	699.12360	786.48187	505.18518	802.76270	737.31842	515.62231	608.22699	1200.88940	55.50529	614.47876	1129.91223	30.49102	665.98358	1074.05627	103.25115	702.02667	1199.80737	25.15333	736.20123	1263.92358	49.95959	796.63129	1226.02612	43.21291	777.88599	1337.35059	20.16132
5108	20.42800	560.39838	1403.99927	312.99667	637.25415	1344.63721	459.30569	591.20734	1378.13342	144.11795	709.99316	1291.99023	279.79288	661.30585	1135.33496	515.78455	664.00769	1044.95813	531.62140	617.26276	1009.80115	460.09125	732.93414	875.54114	509.52698	764.70435	814.79510	479.37540	699.02838	786.47040	505.17380	802.66278	737.29919	515.61334	608.19006	1200.89233	55.50383	614.43921	1129.91711	30.48129	665.93402	1074.06433	103.23608	701.99829	1199.80981	25.13361	736.17920	1263.91699	49.92583	796.60547	1226.01514	43.17173	777.86932	1337.34412	20.12632
5109	20.43200	560.37762	1403.99841	312.99966	637.22858	1344.63708	459.30527	591.18109	1378.14319	144.11690	709.95953	1291.98596	279.78284	661.27405	1135.32764	515.77496	663.95746	1044.95068	531.61060	617.19598	1009.80341	460.08835	732.85504	875.52740	509.51517	764.61914	814.77722	479.36038	698.93390	786.45172	505.17178	802.56616	737.27722	515.61017	608.14929	1200.89954	55.50117	614.40619	1129.92114	30.47081	665.90375	1074.07507	103.22412	701.97516	1199.80591	25.11619	736.15814	1263.90881	49.89609	796.58459	1225.99695	43.14750	777.85345	1337.33875	20.09675
5110	20.43600	560.35474	1403.99707	313.01266	637.20203	1344.63464	459.30872	591.15594	1378.14685	144.11089	709.92920	1291.97913	279.77747	661.24036	1135.31543	515.76801	663.90613	1044.94153	531.60321	617.13184	1009.80292	460.08325	732.77600	875.51019	509.50897	764.53607	814.75647	479.34683	698.84033	786.43750	505.18018	802.46606	737.24902	515.60889	608.11768	1200.90735	55.49353	614.37500	1129.92468	30.46496	665.88965	1074.08521	103.20437	701.95447	1199.79956	25.10408	736.14154	1263.90088	49.87359	796.56433	1225.97424	43.14174	777.83978	1337.33582	20.06178
5111	20.44000	560.33044	1403.99890	313.02921	637.17633	1344.62646	459.32068	591.13184	1378.15649	144.11107	709.90082	1291.97180	279.78143	661.20660	1135.30554	515.76697	663.84839	1044.92944	531.60413	617.07001	1009.80438	460.08325	732.69421	875.49280	509.50180	764.44952	814.73273	479.34036	698.74591	786.42212	505.19031	802.35706	737.22327	515.61371	608.08923	1200.91321	55.48972	614.34009	1129.92737	30.46195	665.84351	1074.09167	103.19391	701.92950	1199.79358	25.09728	736.12384	1263.89526	49.86436	796.54150	1225.95190	43.14465	777.82361	1337.33398	20.02940
